<svg width="1532" height="874" viewBox="0 0 1532 874" fill="none" xmlns="http://www.w3.org/2000/svg">
<rect width="1532" height="874" fill="#1E1E1E"/>
<rect width="1532" height="874" fill="white"/>
<path d="M393 389V411L472.5 439L554.5 356H539L475 419L450 401.5L460.5 392L476.5 404L513 366.5L485 356L393 389Z" fill="url(#paint0_linear_0_1)"/>
<path d="M546.5 381.5L494.5 435.5L557 411.5V387L554 383L550.5 381.5H546.5Z" fill="url(#paint1_linear_0_1)"/>
<path d="M393 450V427V425L476.5 452L557 424.5V449.5L476.5 479.5L393 450Z" fill="url(#paint2_linear_0_1)"/>
<path d="M393 489.5V464.5L476.5 490.5L557 464V488.5L476.5 518.5L393 489.5Z" fill="url(#paint3_linear_0_1)"/>
<path d="M633.063 412.598C632.765 409.591 631.484 407.254 629.222 405.588C626.96 403.923 623.89 403.09 620.012 403.09C617.377 403.09 615.153 403.463 613.338 404.209C611.523 404.93 610.131 405.936 609.162 407.229C608.217 408.522 607.745 409.988 607.745 411.629C607.695 412.996 607.981 414.189 608.603 415.208C609.249 416.228 610.131 417.11 611.25 417.856C612.369 418.577 613.661 419.211 615.128 419.757C616.594 420.279 618.161 420.727 619.826 421.1L626.687 422.74C630.018 423.486 633.075 424.48 635.859 425.723C638.643 426.966 641.055 428.495 643.093 430.31C645.131 432.124 646.71 434.262 647.828 436.723C648.972 439.184 649.556 442.005 649.581 445.187C649.556 449.86 648.363 453.912 646.001 457.343C643.665 460.748 640.284 463.396 635.859 465.285C631.46 467.149 626.152 468.081 619.938 468.081C613.773 468.081 608.404 467.137 603.83 465.248C599.281 463.358 595.726 460.562 593.166 456.858C590.63 453.129 589.3 448.518 589.176 443.025H604.799C604.973 445.585 605.707 447.723 606.999 449.438C608.317 451.128 610.069 452.408 612.257 453.278C614.469 454.124 616.967 454.546 619.751 454.546C622.486 454.546 624.86 454.148 626.873 453.353C628.912 452.558 630.49 451.451 631.609 450.034C632.727 448.618 633.287 446.989 633.287 445.15C633.287 443.435 632.777 441.993 631.758 440.825C630.763 439.656 629.297 438.662 627.358 437.842C625.444 437.021 623.095 436.276 620.311 435.604L611.996 433.516C605.558 431.95 600.474 429.502 596.745 426.171C593.017 422.84 591.165 418.353 591.19 412.71C591.165 408.087 592.395 404.047 594.881 400.592C597.392 397.137 600.835 394.44 605.21 392.501C609.585 390.562 614.556 389.592 620.124 389.592C625.792 389.592 630.739 390.562 634.964 392.501C639.215 394.44 642.521 397.137 644.883 400.592C647.244 404.047 648.462 408.049 648.537 412.598H633.063ZM690.606 409.727V421.659H656.116V409.727H690.606ZM663.946 396.006H679.83V449.401C679.83 450.867 680.054 452.011 680.501 452.831C680.949 453.626 681.57 454.186 682.366 454.509C683.186 454.832 684.13 454.994 685.199 454.994C685.945 454.994 686.691 454.931 687.437 454.807C688.182 454.658 688.754 454.546 689.152 454.472L691.65 466.292C690.854 466.54 689.736 466.826 688.294 467.149C686.852 467.497 685.1 467.708 683.037 467.783C679.209 467.932 675.853 467.423 672.969 466.254C670.111 465.086 667.886 463.271 666.295 460.81C664.704 458.349 663.921 455.242 663.946 451.489V396.006ZM717.285 468.081C713.631 468.081 710.374 467.447 707.516 466.18C704.657 464.887 702.395 462.985 700.729 460.475C699.089 457.939 698.268 454.782 698.268 451.004C698.268 447.822 698.853 445.15 700.021 442.987C701.189 440.825 702.78 439.085 704.794 437.767C706.807 436.45 709.094 435.455 711.654 434.784C714.24 434.113 716.949 433.641 719.783 433.367C723.114 433.019 725.799 432.696 727.837 432.398C729.875 432.075 731.354 431.602 732.274 430.981C733.194 430.359 733.654 429.44 733.654 428.222V427.998C733.654 425.636 732.908 423.809 731.416 422.517C729.95 421.224 727.862 420.578 725.152 420.578C722.294 420.578 720.019 421.212 718.329 422.479C716.638 423.722 715.52 425.288 714.973 427.178L700.282 425.984C701.028 422.504 702.494 419.496 704.682 416.961C706.869 414.401 709.691 412.437 713.146 411.07C716.626 409.678 720.653 408.982 725.227 408.982C728.409 408.982 731.454 409.354 734.362 410.1C737.295 410.846 739.893 412.002 742.155 413.568C744.442 415.134 746.244 417.147 747.562 419.608C748.879 422.044 749.538 424.965 749.538 428.371V467H734.474V459.058H734.027C733.107 460.848 731.876 462.426 730.335 463.793C728.794 465.136 726.942 466.192 724.779 466.963C722.617 467.708 720.119 468.081 717.285 468.081ZM721.834 457.119C724.17 457.119 726.234 456.659 728.023 455.739C729.813 454.795 731.218 453.527 732.237 451.936C733.256 450.345 733.766 448.543 733.766 446.529V440.452C733.268 440.775 732.585 441.073 731.715 441.347C730.87 441.595 729.913 441.831 728.844 442.055C727.775 442.254 726.706 442.44 725.637 442.614C724.568 442.763 723.599 442.9 722.729 443.025C720.864 443.298 719.236 443.733 717.844 444.33C716.452 444.926 715.371 445.734 714.6 446.753C713.829 447.748 713.444 448.99 713.444 450.482C713.444 452.645 714.227 454.298 715.793 455.441C717.384 456.56 719.398 457.119 721.834 457.119ZM787.738 468.119C781.872 468.119 776.826 466.876 772.6 464.39C768.399 461.879 765.167 458.399 762.905 453.95C760.668 449.5 759.549 444.379 759.549 438.587C759.549 432.721 760.68 427.575 762.943 423.151C765.229 418.701 768.473 415.233 772.674 412.748C776.875 410.237 781.872 408.982 787.664 408.982C792.66 408.982 797.035 409.889 800.789 411.703C804.542 413.518 807.513 416.066 809.7 419.347C811.888 422.629 813.093 426.482 813.317 430.906H798.328C797.905 428.048 796.787 425.748 794.972 424.008C793.182 422.243 790.833 421.361 787.925 421.361C785.464 421.361 783.314 422.032 781.474 423.374C779.66 424.692 778.243 426.618 777.223 429.154C776.204 431.689 775.695 434.759 775.695 438.364C775.695 442.018 776.192 445.125 777.186 447.685C778.205 450.246 779.635 452.197 781.474 453.539C783.314 454.882 785.464 455.553 787.925 455.553C789.739 455.553 791.368 455.18 792.809 454.434C794.276 453.689 795.482 452.607 796.426 451.19C797.396 449.749 798.03 448.021 798.328 446.007H813.317C813.069 450.382 811.875 454.235 809.738 457.566C807.625 460.873 804.704 463.458 800.975 465.322C797.247 467.186 792.834 468.119 787.738 468.119ZM837.88 450.519L837.917 431.466H840.229L858.574 409.727H876.808L852.161 438.513H848.395L837.88 450.519ZM823.487 467V390.636H839.371V467H823.487ZM859.283 467L842.429 442.055L853.018 430.832L877.889 467H859.283ZM890.641 467H880.946L908.986 390.636H918.532L946.571 467H936.877L914.057 402.717H913.461L890.641 467ZM894.221 437.17H933.297V445.374H894.221V437.17ZM993.366 443.584V409.727H1002.17V467H993.366V457.305H992.77C991.428 460.214 989.339 462.687 986.506 464.725C983.672 466.739 980.092 467.746 975.767 467.746C972.188 467.746 969.006 466.963 966.222 465.397C963.438 463.806 961.25 461.419 959.659 458.238C958.068 455.031 957.273 450.991 957.273 446.119V409.727H966.072V445.523C966.072 449.699 967.241 453.03 969.577 455.516C971.939 458.001 974.947 459.244 978.601 459.244C980.788 459.244 983.013 458.685 985.275 457.566C987.562 456.448 989.476 454.733 991.017 452.421C992.583 450.109 993.366 447.163 993.366 443.584ZM1039.91 468.193C1035.14 468.193 1030.92 466.988 1027.27 464.576C1023.62 462.14 1020.76 458.71 1018.69 454.285C1016.63 449.836 1015.6 444.578 1015.6 438.513C1015.6 432.497 1016.63 427.277 1018.69 422.852C1020.76 418.428 1023.63 415.01 1027.31 412.598C1030.99 410.187 1035.24 408.982 1040.06 408.982C1043.79 408.982 1046.73 409.603 1048.9 410.846C1051.08 412.064 1052.75 413.456 1053.89 415.022C1055.06 416.563 1055.97 417.831 1056.61 418.825H1057.36V390.636H1066.16V467H1057.66V458.2H1056.61C1055.97 459.244 1055.05 460.562 1053.86 462.153C1052.66 463.719 1050.96 465.123 1048.75 466.366C1046.53 467.584 1043.59 468.193 1039.91 468.193ZM1041.1 460.288C1044.63 460.288 1047.62 459.369 1050.05 457.529C1052.49 455.665 1054.34 453.092 1055.61 449.811C1056.88 446.505 1057.51 442.689 1057.51 438.364C1057.51 434.088 1056.89 430.347 1055.64 427.14C1054.4 423.909 1052.56 421.398 1050.13 419.608C1047.69 417.794 1044.68 416.886 1041.1 416.886C1037.37 416.886 1034.27 417.843 1031.78 419.757C1029.32 421.647 1027.47 424.219 1026.23 427.476C1025.01 430.707 1024.4 434.337 1024.4 438.364C1024.4 442.44 1025.02 446.144 1026.26 449.475C1027.53 452.781 1029.39 455.416 1031.86 457.38C1034.34 459.319 1037.42 460.288 1041.1 460.288ZM1083.5 467V409.727H1092.3V467H1083.5ZM1087.97 400.182C1086.26 400.182 1084.78 399.598 1083.54 398.429C1082.32 397.261 1081.71 395.857 1081.71 394.216C1081.71 392.575 1082.32 391.171 1083.54 390.002C1084.78 388.834 1086.26 388.25 1087.97 388.25C1089.69 388.25 1091.15 388.834 1092.37 390.002C1093.62 391.171 1094.24 392.575 1094.24 394.216C1094.24 395.857 1093.62 397.261 1092.37 398.429C1091.15 399.598 1089.69 400.182 1087.97 400.182ZM1133.32 409.727V417.185H1103.64V409.727H1133.32ZM1112.29 396.006H1121.09V450.594C1121.09 453.08 1121.45 454.944 1122.17 456.187C1122.92 457.405 1123.86 458.225 1125.01 458.648C1126.18 459.045 1127.41 459.244 1128.7 459.244C1129.67 459.244 1130.46 459.195 1131.09 459.095C1131.71 458.971 1132.2 458.871 1132.58 458.797L1134.37 466.702C1133.77 466.925 1132.94 467.149 1131.87 467.373C1130.8 467.621 1129.45 467.746 1127.8 467.746C1125.32 467.746 1122.88 467.211 1120.5 466.142C1118.13 465.074 1116.17 463.445 1114.6 461.258C1113.06 459.07 1112.29 456.311 1112.29 452.98V396.006Z" fill="black"/>
<defs>
<linearGradient id="paint0_linear_0_1" x1="474.878" y1="356" x2="475.122" y2="518.5" gradientUnits="userSpaceOnUse">
<stop offset="0.254808" stop-color="#CCCCCC"/>
<stop offset="0.442308" stop-color="#6D6D6D"/>
<stop offset="0.745192"/>
</linearGradient>
<linearGradient id="paint1_linear_0_1" x1="474.878" y1="356" x2="475.122" y2="518.5" gradientUnits="userSpaceOnUse">
<stop offset="0.254808" stop-color="#CCCCCC"/>
<stop offset="0.442308" stop-color="#6D6D6D"/>
<stop offset="0.745192"/>
</linearGradient>
<linearGradient id="paint2_linear_0_1" x1="474.878" y1="356" x2="475.122" y2="518.5" gradientUnits="userSpaceOnUse">
<stop offset="0.254808" stop-color="#CCCCCC"/>
<stop offset="0.442308" stop-color="#6D6D6D"/>
<stop offset="0.745192"/>
</linearGradient>
<linearGradient id="paint3_linear_0_1" x1="474.878" y1="356" x2="475.122" y2="518.5" gradientUnits="userSpaceOnUse">
<stop offset="0.254808" stop-color="#CCCCCC"/>
<stop offset="0.442308" stop-color="#6D6D6D"/>
<stop offset="0.745192"/>
</linearGradient>
</defs>
</svg>
